<?xml version="1.0" encoding="UTF-8"?>
<!DOCTYPE svg PUBLIC "-//W3C//DTD SVG 1.1//EN" "http://www.w3.org/Graphics/SVG/1.1/DTD/svg11.dtd">
<svg xmlns="http://www.w3.org/2000/svg" version="1.1" width="500px" height="500px" style="shape-rendering:geometricPrecision; text-rendering:geometricPrecision; image-rendering:optimizeQuality; fill-rule:evenodd; clip-rule:evenodd" xmlns:xlink="http://www.w3.org/1999/xlink">
<g><path style="opacity:0.999" fill="#2a317c" d="M 370.5,88.5 C 370.821,90.0481 371.821,90.7148 373.5,90.5C 400.981,105.841 428.148,121.841 455,138.5C 456.15,165.62 456.65,192.786 456.5,220C 456.297,273.169 455.797,326.336 455,379.5C 386.614,419.431 318.448,459.431 250.5,499.5C 249.5,499.5 248.5,499.5 247.5,499.5C 245.853,497.674 243.853,496.34 241.5,495.5C 241.027,494.094 240.027,493.427 238.5,493.5C 172.743,455.722 107.577,417.389 43,378.5C 42.3333,298.833 42.3333,219.167 43,139.5C 45.4663,136.8 48.2996,134.633 51.5,133C 86.7837,113.297 121.784,93.1306 156.5,72.5C 158.027,72.573 159.027,71.9063 159.5,70.5C 162.339,68.5797 165.339,66.9131 168.5,65.5C 170.027,65.573 171.027,64.9063 171.5,63.5C 174.366,61.5675 177.366,59.9009 180.5,58.5C 182.027,58.573 183.027,57.9063 183.5,56.5C 186.339,54.5797 189.339,52.9131 192.5,51.5C 194.027,51.573 195.027,50.9063 195.5,49.5C 196.605,48.3995 197.938,47.7329 199.5,47.5C 201.027,47.573 202.027,46.9063 202.5,45.5C 207.187,42.8008 211.853,40.1341 216.5,37.5C 218.027,37.573 219.027,36.9063 219.5,35.5C 220.605,34.3995 221.938,33.7329 223.5,33.5C 225.027,33.573 226.027,32.9063 226.5,31.5C 229.339,29.5797 232.339,27.9131 235.5,26.5C 237.027,26.573 238.027,25.9063 238.5,24.5C 242.563,20.1477 247.563,18.6477 253.5,20C 292.624,42.8856 331.624,65.719 370.5,88.5 Z"/></g>
<g><path style="opacity:0.435" fill="#908fb9" d="M 238.5,24.5 C 238.027,25.9063 237.027,26.573 235.5,26.5C 235.973,25.0937 236.973,24.427 238.5,24.5 Z"/></g>
<g><path style="opacity:0.345" fill="#8e90b9" d="M 226.5,31.5 C 226.027,32.9063 225.027,33.573 223.5,33.5C 223.973,32.0937 224.973,31.427 226.5,31.5 Z"/></g>
<g><path style="opacity:0.369" fill="#9b9bc2" d="M 219.5,35.5 C 219.027,36.9063 218.027,37.573 216.5,37.5C 216.973,36.0937 217.973,35.427 219.5,35.5 Z"/></g>
<g><path style="opacity:0.376" fill="#8592b5" d="M 202.5,45.5 C 202.027,46.9063 201.027,47.573 199.5,47.5C 199.973,46.0937 200.973,45.427 202.5,45.5 Z"/></g>
<g><path style="opacity:0.373" fill="#999abf" d="M 195.5,49.5 C 195.027,50.9063 194.027,51.573 192.5,51.5C 192.973,50.0937 193.973,49.427 195.5,49.5 Z"/></g>
<g><path style="opacity:0.306" fill="#9395bc" d="M 183.5,56.5 C 183.027,57.9063 182.027,58.573 180.5,58.5C 180.973,57.0937 181.973,56.427 183.5,56.5 Z"/></g>
<g><path style="opacity:0.341" fill="#9394bd" d="M 171.5,63.5 C 171.027,64.9063 170.027,65.573 168.5,65.5C 168.973,64.0937 169.973,63.427 171.5,63.5 Z"/></g>
<g><path style="opacity:0.325" fill="#9292b5" d="M 159.5,70.5 C 159.027,71.9063 158.027,72.573 156.5,72.5C 156.973,71.0937 157.973,70.427 159.5,70.5 Z"/></g>
<g><path style="opacity:0.478" fill="#9490bc" d="M 370.5,88.5 C 371.71,88.9321 372.71,89.5987 373.5,90.5C 371.821,90.7148 370.821,90.0481 370.5,88.5 Z"/></g>
<g><path style="opacity:1" fill="#f3f3f4" d="M 268.5,155.5 C 280.372,154.537 285.539,159.87 284,171.5C 268.242,225.379 252.909,279.379 238,333.5C 235.348,340.826 230.181,343.993 222.5,343C 215.526,339.551 213.026,334.051 215,326.5C 230.863,272.988 246.197,219.321 261,165.5C 262.306,161.199 264.806,157.866 268.5,155.5 Z"/></g>
<g><path style="opacity:1" fill="#f2f2f3" d="M 173.5,191.5 C 188.086,189.898 193.252,195.898 189,209.5C 175.653,222.681 162.486,236.014 149.5,249.5C 162.486,262.986 175.653,276.319 189,289.5C 193.302,299.563 190.135,305.897 179.5,308.5C 177.366,308.485 175.366,307.985 173.5,307C 156.667,290.167 139.833,273.333 123,256.5C 119.744,251.764 119.744,247.098 123,242.5C 140.035,225.632 156.868,208.632 173.5,191.5 Z"/></g>
<g><path style="opacity:1" fill="#f2f2f3" d="M 314.5,191.5 C 318.637,191.146 322.637,191.646 326.5,193C 343,209.5 359.5,226 376,242.5C 379.256,247.098 379.256,251.764 376,256.5C 359.5,273 343,289.5 326.5,306C 317.916,310.794 311.749,308.627 308,299.5C 307.159,295.88 307.826,292.546 310,289.5C 323.347,276.319 336.514,262.986 349.5,249.5C 336.514,236.014 323.347,222.681 310,209.5C 305.885,202.071 307.385,196.071 314.5,191.5 Z"/></g>
<g><path style="opacity:0.114" fill="#d4d5e6" d="M 238.5,493.5 C 240.027,493.427 241.027,494.094 241.5,495.5C 239.973,495.573 238.973,494.906 238.5,493.5 Z"/></g>
</svg>
